<svg xmlns="http://www.w3.org/2000/svg" width="15" height="21"><path fill-rule="evenodd" fill="#B9C9E9" d="M13.942 11.165L8.14 20.7a.625.625 0 0 1-.531.299h-.005a.627.627 0 0 1-.531-.291l-5.954-9.443A7.29 7.29 0 0 1 0 7.382C0 3.311 3.364 0 7.5 0 11.635 0 15 3.311 15 7.382a7.289 7.289 0 0 1-1.058 3.783zM7.5 1.222c-3.446 0-6.258 2.768-6.258 6.16 0 1.147.33 2.264.94 3.234l5.413 8.586 5.274-8.669a6.074 6.074 0 0 0 .885-3.151c0-3.392-2.808-6.16-6.254-6.16zm0 9.851c-2.095 0-3.75-1.668-3.75-3.691 0-2.035 1.682-3.691 3.75-3.691s3.75 1.656 3.75 3.691c0 2-1.629 3.691-3.75 3.691zm0-6.16c-1.379 0-2.508 1.112-2.508 2.469 0 1.36 1.122 2.469 2.508 2.469 1.408 0 2.504-1.128 2.504-2.469 0-1.357-1.126-2.469-2.504-2.469z"/></svg>