<svg xmlns="http://www.w3.org/2000/svg" width="15" height="14"><path fill-rule="evenodd" fill="#206BE6" d="M14.47 14H.53a.521.521 0 0 1-.53-.519c0-2.728 2.266-4.937 5.037-4.937h4.926c2.783 0 5.037 2.22 5.037 4.937a.521.521 0 0 1-.53.519zM9.963 9.582H5.037c-2.02 0-3.682 1.484-3.941 3.379h12.808c-.259-1.907-1.921-3.379-3.941-3.379zM7.475 7.856c-2.216 0-4.014-1.774-4.014-3.934S5.259-.001 7.475-.001c2.217 0 4.015 1.751 4.015 3.923 0 2.173-1.798 3.934-4.015 3.934zm0-6.83c-1.625 0-2.955 1.303-2.955 2.896s1.33 2.897 2.955 2.897c1.626 0 2.956-1.304 2.956-2.897 0-1.593-1.33-2.896-2.956-2.896z"/></svg>